<svg id="e_spirit_logo" data-name="Logo" xmlns="http://www.w3.org/2000/svg" xmlns:xlink="http://www.w3.org/1999/xlink" x="0px" y="0px" viewBox="0 0 250 74" style="enable-background:new 0 0 250 74;" xml:space="preserve"> <style type="text/css" id="style2"> .st0{fill:#BD4B7A;} .st1{fill:#801545;} .st2{fill:#631033;} .st3{fill:#B60862;} .st4{fill:#71123C;} .st5{fill:#A31958;} .st6{fill:#D89BB6;} .st7{fill:#CC7799;} .st8{fill:#90164D;} .st9{fill:#B61F7E;} .st10{fill:#00395A;} </style> <rect y="0" class="st0" width="10.860817" height="10.639846" id="rect4" x="0" style="stroke-width:1.07497"></rect><rect x="10.021128" y="0" class="st1" width="10.108381" height="10.330487" id="rect6" style="stroke-width:1.02188"></rect><rect x="20.042255" y="0" class="st2" width="10.607258" height="10.583628" id="rect8" style="stroke-width:1.05954"></rect><rect x="30.063383" y="0" class="st3" width="10.20622" height="10.583628" id="rect10" style="stroke-width:1.03932"></rect><rect x="40.084511" y="0" class="st4" width="10.021128" height="10.708628" id="rect12" style="stroke-width:1.03591"></rect><rect y="10.021128" class="st5" width="10.330487" height="10.771128" id="rect14" x="0" style="stroke-width:1.05484"></rect><rect x="10.021128" y="10.021128" class="st6" width="10.463069" height="10.286293" id="rect16" style="stroke-width:1.03743"></rect><rect x="20.042255" y="10.021128" class="st7" width="10.595652" height="10.352584" id="rect18" style="stroke-width:1.04734"></rect><rect x="30.063381" y="10.021128" class="st3" width="11.521128" height="10.833628" id="rect20" style="stroke-width:1.11721"></rect><rect x="40.084511" y="10.021128" class="st5" width="10.021128" height="10.396128" id="rect22" style="stroke-width:1.02069"></rect><rect y="20.042255" class="st8" width="11.083628" height="10.639846" id="rect24" x="0" style="stroke-width:1.08595"></rect><rect x="10.021128" y="20.042255" class="st3" width="10.958628" height="10.639846" id="rect26" style="stroke-width:1.07981"></rect><rect x="20.042255" y="20.042255" class="st8" width="10.595652" height="10.68404" id="rect28" style="stroke-width:1.06397"></rect><rect x="30.063381" y="20.042255" class="st2" width="10.708628" height="10.595652" id="rect30" style="stroke-width:1.0652"></rect><rect x="40.084511" y="20.042255" class="st7" width="10.021128" height="10.595652" id="rect32" style="stroke-width:1.03044"></rect><rect y="30.063381" class="st1" width="10.896128" height="10.833628" id="rect34" x="0" style="stroke-width:1.08648"></rect><rect x="10.021128" y="30.063381" class="st0" width="10.458628" height="10.646128" id="rect36" style="stroke-width:1.05519"></rect><rect x="20.042255" y="30.063381" class="st6" width="10.242099" height="10.458628" id="rect38" style="stroke-width:1.03498"></rect><rect x="30.063381" y="30.063381" class="st3" width="11.052378" height="10.271128" id="rect40" style="stroke-width:1.06546"></rect><rect x="40.084511" y="30.063381" class="st1" width="10.021128" height="10.677378" id="rect42" style="stroke-width:1.0344"></rect><rect y="40.084511" class="st2" width="10.772429" height="10.021128" id="rect44" x="0" style="stroke-width:1.039"></rect><rect x="10.021128" y="40.084511" class="st8" width="10.772429" height="10.021128" id="rect46" style="stroke-width:1.039"></rect><rect x="30.063381" y="40.084511" class="st7" width="10.071984" height="10.021128" id="rect50" style="stroke-width:1.00465"></rect><rect x="20.042255" y="40.084511" class="st5" width="10.021127" height="10.021128" id="rect48" style="stroke-width:1.00211"></rect><rect x="40.084511" y="40.084511" class="st4" width="10.021128" height="10.021128" id="rect52" style="stroke-width:1.00211"></rect> <path d="M87,17.8c0,0.9-0.2,1.4-0.5,1.5c-1.2,0.2-2.5,0.3-3.7,0.3h-4c-0.5,0-0.8-0.2-0.8-0.7c0-0.8,0.3-1.6,0.7-2.2 c0.5-0.8,1.1-1.4,1.9-1.9c0.7-0.5,1.5-0.7,2.4-0.7c1.1,0,2.1,0.4,2.9,1.1C86.6,15.9,87,16.8,87,17.8 M91.8,21.4 c0.3-0.5,0.5-1,0.4-1.6c0.1-2.1-0.8-4.2-2.4-5.6c-1.7-1.5-3.8-2.3-6.1-2.2c-2.1,0-4.3,0.6-6.1,1.8c-1.9,1.2-3.4,2.8-4.4,4.7 c-1.1,2-1.7,4.2-1.7,6.5s0.5,4.5,1.4,6.6c0.8,1.8,2.1,3.4,3.8,4.5c1.7,1.1,3.6,1.7,5.6,1.6c2,0,3.9-0.5,5.6-1.5 c1.5-0.9,2.7-2.2,3.5-3.7c0.4-0.6,0.6-1.3,0.7-2c0-0.2-0.1-0.4-0.2-0.5s-0.2-0.2-0.4-0.2c-0.3,0.1-0.6,0.2-0.8,0.5 c-1.5,1.5-3.6,2.4-5.8,2.5c-1.4,0-2.9-0.4-4.1-1.2c-1.2-0.8-2.2-1.9-2.9-3.1c-0.7-1.4-1-2.9-1-4.4c0-0.5,0.1-1.1,0.3-1.6 c0.3-0.3,0.7-0.5,1.2-0.5h11.7C90.9,21.9,91.4,21.7,91.8,21.4" id="path54"></path> <path d="M127.3,37.7c3.9,0,7-1,9.3-2.9s3.4-4.7,3.4-8.3c0.1-2.2-0.6-4.4-1.9-6.1c-1.7-2-3.8-3.8-6.2-5.1c-2-1.2-4-2.5-5.8-4 c-1.1-0.9-1.7-2.2-1.8-3.6c-0.1-1.5,0.4-3,1.5-4.1c1.1-1,2.6-1.5,4.1-1.4c3.3,0,5.7,2.2,7,6.6c0.1,0.3,0.3,0.5,0.6,0.6 s0.6,0.2,0.9,0.2c0.6,0,0.9-0.2,0.9-0.7c0-2.1-0.3-4.2-0.8-6.2c-0.1-0.4-0.3-0.7-0.5-1c-0.2-0.2-0.5-0.4-0.9-0.6c-1-0.4-2-0.7-3-0.9 c-1.1,0-2.3-0.2-3.5-0.2c-2.2,0-4.5,0.4-6.5,1.3c-1.8,0.8-3.3,2.1-4.4,3.7s-1.6,3.5-1.6,5.4c0,1.7,0.4,3.4,1.3,4.9 c0.8,1.3,1.8,2.4,3.1,3.3c1.2,0.9,2.8,1.9,5,3.2c1.3,0.7,2.5,1.5,3.6,2.4c0.8,0.6,1.4,1.4,1.9,2.2c0.5,1,0.7,2.1,0.7,3.1 c0,1.5-0.5,3-1.5,4.2s-2.6,1.8-4.1,1.7c-2,0-3.9-0.9-5.2-2.3c-1.7-1.8-2.9-4.1-3.5-6.5c-0.1-0.2-0.2-0.4-0.4-0.5 c-0.2-0.1-0.5-0.1-0.7-0.1c-0.7,0-1,0.2-1,0.7c-0.2,2.5,0.1,4.9,0.7,7.3c0.2,0.5,0.6,0.9,1,1.3C121.4,36.9,124.3,37.8,127.3,37.7" id="path56"></path> <path d="M242,37.4c1.3,0,2.6-0.3,3.7-0.8c1.1-0.4,2.1-1,3-1.7c0.8-0.6,1.2-1,1.2-1.3s0-0.5-0.1-0.8c-0.1-0.2-0.2-0.3-0.4-0.3 c-0.1,0-0.3,0-0.4,0.1c-0.5,0.3-1.1,0.6-1.7,0.8c-0.8,0.2-1.5,0.3-2.3,0.2c-1.1,0.1-2.1-0.4-2.8-1.3c-0.7-1.1-1.1-2.5-1-3.9V17.5 c-0.1-0.5,0.1-0.9,0.5-1.2c0.6-0.3,1.3-0.4,1.9-0.3h5.5c0.1,0,0.3-0.2,0.5-0.6c0.2-0.4,0.2-0.9,0.2-1.4c0-0.3-0.1-0.6-0.2-0.8 c-0.1-0.3-0.2-0.4-0.4-0.4h-6.8c-0.4,0-0.8,0-1.1-0.2c-0.2-0.2-0.4-0.4-0.4-0.7v-0.2l0.4-3.2c0.1-0.7-0.2-1-0.9-1 c-0.3,0-0.6,0.1-0.8,0.3l-0.5,0.4c-1,1-2.2,2-3.6,3.1c-1.2,1-2.4,1.8-3.8,2.5c-0.2,0.1-0.4,0.3-0.4,0.6c0,0.4,0.1,0.8,0.2,1.1 c0.2,0.4,0.4,0.5,0.6,0.5h0.6c0.5,0,1,0.1,1.4,0.3c0.3,0.1,0.4,0.4,0.4,0.7v13.2c-0.1,2,0.5,3.9,1.8,5.4 C238.2,36.8,240.1,37.5,242,37.4" id="path58"></path> <path d="M98.4,22c-0.7,0-1.7,4-0.5,4h13c0.7,0,1.8-4,0.5-4H98.4z" id="path60"></path> <path d="M170.8,18c-0.7-1.7-1.9-3.1-3.4-4.2s-3.3-1.6-5.1-1.6c-1.2,0-2.4,0.3-3.6,0.7c-1.2,0.4-2.4,1-3.4,1.7 c-0.8,0.5-1.5,1-2.2,1.7c-0.1-0.2-0.1-0.4-0.1-0.6c0-0.7,0.1-1.3,0.2-2l0.1-1.5c0-0.4-0.2-0.6-0.5-0.6c-0.1,0-0.2,0.1-0.3,0.1 c-0.1,0.1-0.2,0.1-0.4,0.2c-2.5,1.1-5.1,2-7.8,2.6c-0.3,0.1-0.6,0.5-0.5,0.9c0,0.5,0.2,0.9,0.6,1c0.8,0.1,1.5,0.6,1.9,1.3 c0.4,0.7,0.7,1.5,0.7,2.3v26c0,0.5-0.2,1-0.6,1.4c-0.5,0.4-1.1,0.7-1.8,0.8c-0.9,0.3-1.3,0.6-1.3,1.1c0,0.2,0.2,0.5,0.4,0.6 s0.5,0.2,0.8,0.2h12.3c0.3,0,0.5-0.1,0.7-0.2c0.2-0.1,0.3-0.3,0.3-0.6c0-0.5-0.4-0.8-1.3-1.1c-0.8-0.2-1.7-0.6-2.4-1 c-0.5-0.4-0.8-1-0.8-1.6V38c0-0.3,0-0.6,0.1-1s0.1-0.6,0.2-0.6c0.8,0.4,1.7,0.8,2.5,1c0.9,0.3,1.8,0.4,2.7,0.4 c2.4,0,4.7-0.7,6.6-2.1c2-1.4,3.7-3.2,4.9-5.4c1.2-2.1,1.8-4.5,1.8-6.9C172,21.6,171.6,19.7,170.8,18z M163.9,31.1 c-0.5,1.3-1.4,2.4-2.5,3.2c-0.7,0.6-1.6,0.9-2.6,1c-1,0-2-0.4-2.8-1.1c-0.9-0.8-1.6-1.7-2.1-2.8s-0.7-2.3-0.8-3.4l0.1-9.4 c0-0.3,0.3-0.7,0.8-1.1c0.6-0.5,1.3-0.9,2.1-1.2c2.3-1.1,5.1-0.4,6.8,1.5c1.4,1.4,2,3.9,2,7.7C165.1,27.5,164.7,29.4,163.9,31.1 L163.9,31.1z" id="path62"></path> <path d="M182.9,8.2c1.1,0,2.1-0.4,2.9-1.1c0.8-0.7,1.2-1.7,1.1-2.8c0-1.1-0.4-2.1-1.1-2.9c-0.8-0.8-1.8-1.2-2.9-1.2 c-1.1,0-2.1,0.4-2.8,1.2c-0.8,0.8-1.2,1.8-1.1,2.9c0,1,0.4,2,1.1,2.8S181.8,8.3,182.9,8.2z" id="path64"></path> <path d="M189.8,35.6c-0.3-0.2-0.6-0.3-0.9-0.4c-0.7-0.2-1.4-0.5-2-0.9c-0.4-0.3-0.6-0.8-0.6-1.3V19.9c0-2.1,0.2-4.2,0.5-6.3l0.2-2 c0-0.4-0.2-0.6-0.6-0.6c-0.4,0.1-0.7,0.2-1,0.4c-2.5,1.4-5.2,2.5-8,3.2c-0.4,0.1-0.6,0.4-0.6,0.9c0,0.2,0.1,0.4,0.2,0.6 c0.1,0.2,0.3,0.3,0.5,0.3c0.8,0.1,1.5,0.5,2,1.2c0.4,0.9,0.6,1.8,0.6,2.8V33c0,0.5-0.2,1-0.6,1.4c-0.6,0.4-1.3,0.6-2,0.8 c-0.8,0.2-1.1,0.5-1.1,1c0,0.2,0.1,0.4,0.3,0.6c0.2,0.1,0.5,0.2,0.8,0.2h12c0.7,0,1-0.3,1-0.8C190.2,36,190,35.7,189.8,35.6z" id="path66"></path> <path d="M222.8,8.3c1.1,0,2.1-0.4,2.9-1.1c0.8-0.7,1.2-1.7,1.2-2.8s-0.4-2.1-1.2-2.9s-1.8-1.2-2.9-1.2c-1.1,0-2.1,0.4-2.8,1.2 c-0.8,0.8-1.2,1.8-1.2,2.9c0,1,0.4,2,1.2,2.8C220.7,7.9,221.7,8.3,222.8,8.3z" id="path68"></path> <path d="M229.7,35.6c-0.3-0.2-0.6-0.3-0.9-0.4c-0.7-0.2-1.4-0.5-2.1-0.9c-0.4-0.3-0.6-0.8-0.6-1.3V19.9c0-2.1,0.2-4.2,0.5-6.3l0.2-2 c0-0.4-0.2-0.6-0.6-0.6c-0.4,0.1-0.7,0.2-1,0.4c-2.4,1.4-5,2.5-7.6,3.2c-0.4,0.1-0.7,0.4-0.6,0.9l0,0c0,0.2,0.1,0.4,0.2,0.6 c0.1,0.2,0.3,0.3,0.5,0.3c0.7,0.1,1.3,0.5,1.6,1.2c0.4,0.9,0.6,1.8,0.6,2.8V33c0,0.5-0.2,1-0.6,1.4c-0.6,0.4-1.3,0.6-2,0.8 c-0.8,0.2-1.2,0.5-1.2,1c0,0.2,0.1,0.4,0.3,0.6c0.2,0.1,0.5,0.2,0.8,0.2h12c0.7,0,1-0.3,1-0.8C230,36,229.9,35.8,229.7,35.6z" id="path70"></path> <path d="M212.9,12.6c-0.7-0.5-1.6-0.7-2.5-0.7c-1.4,0-2.7,0.5-3.8,1.4c-1.3,0.9-2.4,2.1-3.4,3.3c0,0-0.1,0-0.1-0.1s-0.1-0.1-0.1-0.2 l0.2-4.5c0-0.4-0.1-0.6-0.5-0.6c-0.4,0.1-0.8,0.3-1.2,0.5c-1.1,0.6-2.3,1.1-3.4,1.6c-1.2,0.5-2.5,0.9-3.7,1.2 c-0.4,0.1-0.7,0.5-0.6,0.9c0,0.5,0.3,0.9,0.7,1c0.7,0.1,1.2,0.5,1.5,1.1c0.3,0.7,0.5,1.5,0.4,2.3v13.1c0,0.5-0.2,1-0.5,1.4 c-0.5,0.4-1.1,0.7-1.7,0.8c-0.4,0.1-0.7,0.2-1,0.4c-0.2,0.2-0.3,0.4-0.3,0.7c0,0.2,0.1,0.4,0.3,0.6c0.3,0.1,0.5,0.2,0.8,0.2h12.1 c0.7,0,1-0.2,1-0.8c0-0.2-0.1-0.5-0.3-0.6c-0.3-0.2-0.6-0.3-1-0.4c-0.8-0.2-1.6-0.6-2.4-1.1c-0.5-0.4-0.7-1-0.7-1.5V22.3 c-0.1-1.4,0.2-2.9,1-4.1c0.7-0.8,1.7-1.3,2.8-1.2c0.7,0.1,1.4,0.3,2.1,0.7c0.6,0.4,1.3,0.6,2,0.7c0.9-0.1,1.6-0.6,2.1-1.4 c0.6-0.8,0.9-1.7,0.9-2.6C213.8,13.7,213.5,13,212.9,12.6z" id="path72"></path> <g id="g98"> <polygon class="st9" points="177.2,60.3 173.4,64.5 177.8,69.4 181.4,69.4 177,64.5 180.8,60.3 " id="polygon74"></polygon> <polygon class="st10" points="170.4,56 170.4,68.2 173.4,64.9 173.4,56 " id="polygon76"></polygon> <g id="g84"> <path class="st10" d="M91.1,63.2c-0.7-0.6-1.5-0.7-1.9-0.7c-0.9,0-1.5,0.5-1.7,0.7c-0.4,0.4-0.7,1-0.7,1.7c0,0.7,0.2,1.3,0.6,1.6 c0.5,0.5,1.1,0.7,1.8,0.7c0.5,0,1.2-0.1,1.9-0.7v2.7c-0.8,0.4-1.5,0.6-2.3,0.6c-1.5,0-2.7-0.6-3.5-1.4c-0.7-0.7-1.5-1.8-1.5-3.5 c0-1.5,0.7-2.8,1.5-3.6c1-0.9,2.2-1.3,3.5-1.3c0.8,0,1.5,0.1,2.3,0.5L91.1,63.2L91.1,63.2z" id="path78"></path> <path class="st10" d="M92.3,60.3h2.9v1.5c0.3-0.5,0.7-1,1.1-1.3c0.5-0.3,1-0.4,1.6-0.4c0.4,0,0.7,0,0.9,0.1L98.7,63 c-0.4-0.2-0.8-0.3-1.3-0.3c-0.7,0-1.1,0.2-1.5,0.6c-0.7,0.7-0.7,1.7-0.7,2.4v3.7h-2.9L92.3,60.3L92.3,60.3z" id="path80"></path> <path class="st10" d="M108.3,61.5c-0.8-0.8-2.2-1.5-4-1.5s-3.2,0.7-4,1.5c-0.9,0.9-1.4,2.2-1.4,3.4c0,1.2,0.5,2.5,1.4,3.4 c0.8,0.8,2.2,1.5,4,1.5s3.2-0.7,4-1.5c0.9-0.9,1.4-2.2,1.4-3.4C109.6,63.7,109.2,62.4,108.3,61.5 M105.9,66.6 c-0.4,0.4-1,0.7-1.6,0.7c-0.8,0-1.3-0.3-1.7-0.7c-0.3-0.3-0.7-0.9-0.7-1.7c0-0.7,0.2-1.3,0.7-1.7c0.4-0.4,1-0.7,1.6-0.7 c0.7,0,1.2,0.2,1.6,0.7c0.4,0.4,0.7,1,0.7,1.7C106.6,65.6,106.3,66.1,105.9,66.6" id="path82"></path> </g> <polygon class="st10" points="115.2,69.4 113.4,69.4 108.8,60.3 112.1,60.3 114.4,65.1 116.7,60.2 118.3,60.2 120.6,65.1 122.9,60.3 126.1,60.3 121.6,69.4 119.8,69.4 117.5,64.2 " id="polygon86"></polygon> <g id="g96"> <path class="st10" d="M126.7,60.3h2.9v1.1c0.9-1.1,2-1.3,2.8-1.3s1.8,0.1,2.6,0.9c0.8,0.8,0.9,1.9,0.9,2.7v5.8H133v-4.7 c0-0.6,0-1.4-0.5-1.8c-0.2-0.2-0.6-0.4-1.1-0.4c-0.6,0-1,0.2-1.2,0.5c-0.5,0.5-0.6,1.1-0.6,1.7v4.7h-2.9L126.7,60.3L126.7,60.3z" id="path88"></path> <path class="st10" d="M146.2,61.3c-0.6-0.6-1.6-1.3-3.2-1.3c-0.7,0-1.9,0.1-2.9,1.4v-1.1h-2.9v13.8h2.9v-5.7 c0.3,0.4,1.1,1.4,2.9,1.4c1.2,0,2.2-0.3,3.1-1.2c0.9-0.9,1.5-2.1,1.5-3.7C147.6,63.4,147,62.1,146.2,61.3 M143.8,66.5 c-0.4,0.4-1,0.7-1.6,0.7c-0.7,0-1.3-0.3-1.7-0.7c-0.4-0.5-0.7-1-0.7-1.6s0.2-1.2,0.7-1.7c0.3-0.3,0.8-0.7,1.6-0.7 c0.6,0,1.2,0.2,1.6,0.7c0.4,0.4,0.7,1,0.7,1.6C144.5,65.4,144.3,66.1,143.8,66.5" id="path90"></path> <path class="st10" d="M166.1,60.3v1c-0.8-1.1-2.1-1.3-2.9-1.3c-1.3,0-2.4,0.5-3.2,1.3s-1.4,2.2-1.4,3.6c0,1.2,0.4,2.4,1.3,3.4 c1,1.1,2.1,1.4,3.4,1.4c0.7,0,1.9-0.2,2.7-1.4v1.1h2.9v-9.1L166.1,60.3L166.1,60.3z M165.6,66.5c-0.4,0.4-0.9,0.6-1.5,0.6 c-0.7,0-1.3-0.3-1.7-0.7c-0.3-0.3-0.6-0.8-0.6-1.6c0-0.8,0.4-1.4,0.7-1.6c0.4-0.4,1-0.7,1.6-0.7c0.5,0,1.2,0.2,1.6,0.7 c0.4,0.4,0.7,1,0.7,1.7C166.3,65.6,166,66.2,165.6,66.5" id="path92"></path> <path class="st10" d="M154.4,67.2c-0.3,0.2-0.7,0.3-1.2,0.3s-1.1-0.1-1.5-0.6c-0.4-0.4-0.6-1.1-0.6-1.5h6.8v-0.3 c0-1.1-0.2-2.5-1.3-3.7S154,60,153,60s-2.4,0.2-3.5,1.3c-0.9,0.9-1.4,2.3-1.4,3.6c0,1.5,0.6,2.7,1.4,3.5c1.1,1.1,2.2,1.3,3.7,1.3 c1,0,2-0.1,2.9-0.7c0.5-0.3,1.1-0.8,1.6-1.8l-2.6-0.7C154.8,67,154.5,67.2,154.4,67.2 M151.8,62.6c0.3-0.3,0.7-0.6,1.5-0.6 c0.6,0,1.1,0.2,1.4,0.5c0.4,0.4,0.6,1,0.6,1.1h-4C151.4,63.2,151.6,62.9,151.8,62.6" id="path94"></path> </g> </g> <path d="M76.5,65.6c0.3-0.1,0.3-0.3,0.3-0.5l0-0.8c0-0.7-0.2-1.6-1.3-1.6c-0.5,0-1.1,0.3-1.1,0.8c0,0.3,0,0.5-0.2,0.6 c-0.3,0.2-0.8,0.3-1,0.3c-0.2,0-0.3-0.1-0.3-0.3c0-0.9,2-2.2,3.3-2.2c1.3,0,1.9,0.8,1.9,2.1L78,67.3c0,0.8,0.1,1.6,0.8,1.6 c0.2,0,0.3-0.1,0.4-0.1c0.1-0.1,0.2-0.1,0.2-0.1c0.1,0,0.1,0.1,0.1,0.2c0,0.1-0.6,0.8-1.5,0.8c-0.4,0-0.9-0.2-1.2-0.6 c-0.1-0.1-0.2-0.3-0.3-0.3c-0.1,0-0.3,0.2-0.7,0.4c-0.4,0.2-0.8,0.4-1.3,0.4c-0.5,0-1-0.1-1.3-0.4c-0.3-0.3-0.6-0.8-0.6-1.3 c0-0.7,0.3-1.1,1.5-1.5L76.5,65.6z M75.4,68.8c0.4,0,0.9-0.3,1.1-0.4c0.2-0.2,0.2-0.5,0.2-0.8l0-1.1c0-0.2-0.1-0.2-0.2-0.2 c-0.1,0-0.4,0.1-0.7,0.2c-1.1,0.4-1.6,0.6-1.6,1.3C74.3,68,74.5,68.8,75.4,68.8z" id="path100"></path> <g id="g116"> <path d="M191.1,62.3c0.1,0.1,0.3,0.4,0.3,0.7c0,0.3-0.2,0.7-0.4,0.7c-0.1,0-0.2,0-0.3-0.1c-0.4-0.5-1.1-1-1.8-1 c-1.3,0-2.5,1-2.5,2.9c0,1.4,1,3.1,2.9,3.1c1,0,1.6-0.5,2-1.1c0.1,0,0.3,0.1,0.3,0.3c-0.6,1.3-2,1.8-3,1.8c-1,0-1.8-0.3-2.5-0.9 c-0.6-0.6-1-1.5-1-2.7c0-1.9,1.4-4,4.3-4C190,62,190.7,62.1,191.1,62.3z" id="path102"></path> <path d="M199.8,65.7c0,2.2-1.5,3.9-3.8,3.9c-2.1,0-3.7-1.5-3.7-3.7c0-2.3,1.7-3.9,3.8-3.9C198.2,62,199.8,63.5,199.8,65.7z M196,62.6c-1.2,0-2.1,1.1-2.1,3.1c0,1.6,0.7,3.4,2.3,3.4c1.6,0,2.1-1.7,2.1-3C198.3,64.5,197.7,62.6,196,62.6z" id="path104"></path> <path d="M211.7,64.7c0-1.2-0.5-1.8-1.7-1.8c-0.7,0-1.2,0.3-1.5,0.6c-0.2,0.3-0.3,0.4-0.3,1.1v2.7c0,1.3,0,1.5,0.7,1.6l0.4,0.1 c0.1,0.1,0.1,0.4,0,0.4c-0.5,0-1.1-0.1-1.7-0.1c-0.6,0-1.1,0-1.6,0.1c-0.1-0.1-0.2-0.4,0-0.4l0.3-0.1c0.7-0.1,0.7-0.3,0.7-1.6v-2.6 c0-1.2-0.5-1.8-1.7-1.8c-0.7,0-1.2,0.3-1.5,0.6c-0.2,0.2-0.3,0.4-0.3,1v2.8c0,1.3,0,1.5,0.7,1.6l0.3,0.1c0.1,0.1,0.1,0.4,0,0.4 c-0.5,0-1-0.1-1.6-0.1c-0.6,0-1.2,0-1.7,0.1c-0.1-0.1-0.2-0.4,0-0.4l0.4-0.1c0.7-0.1,0.7-0.3,0.7-1.6v-3.1c0-0.7,0-0.8-0.5-1.1 l-0.2-0.1c-0.1-0.1-0.1-0.3,0-0.3c0.4-0.1,1.4-0.6,1.8-0.9c0.1,0,0.2,0,0.2,0.1c0,0.4,0,0.7,0,0.8c0,0.1,0.1,0.2,0.2,0.2 c0.7-0.5,1.5-0.9,2.4-0.9c0.9,0,1.4,0.3,1.9,1.1c0.2,0,0.3,0,0.4-0.1c0.7-0.5,1.6-0.9,2.4-0.9c1.4,0,2.1,1,2.1,2.2v3.1 c0,1.3,0,1.5,0.7,1.6l0.4,0.1c0.1,0.1,0.1,0.4,0,0.4c-0.6,0-1.1-0.1-1.7-0.1c-0.6,0-1.1,0-1.6,0.1c-0.1-0.1-0.2-0.4,0-0.4l0.3-0.1 c0.7-0.1,0.7-0.3,0.7-1.6V64.7z" id="path106"></path> <path d="M216.1,64.2c0-0.7,0-0.8-0.5-1.1l-0.2-0.1c-0.1-0.1-0.1-0.3,0-0.3c0.5-0.2,1.3-0.6,1.8-1c0.1,0,0.2,0,0.2,0.1 c0,0.3-0.1,0.6-0.1,0.8c0,0.1,0,0.2,0.2,0.2c0.2-0.1,1.4-0.8,2.5-0.8c1.8,0,3,1.5,3,3.3c0,2.5-1.8,4.3-4.4,4.3c-0.3,0-0.8,0-1-0.1 c-0.2,0-0.3,0.1-0.3,0.5v1.9c0,1.3,0,1.4,0.7,1.5l0.7,0.1c0.1,0.1,0.1,0.4,0,0.4c-0.9,0-1.4-0.1-2-0.1c-0.6,0-1.2,0-1.7,0.1 c-0.1-0.1-0.2-0.4,0-0.4l0.4-0.1c0.7-0.1,0.7-0.3,0.7-1.6V64.2z M217.5,67.5c0,0.6,0.2,0.8,0.5,1.1c0.4,0.3,0.9,0.4,1.3,0.4 c1.5,0,2.3-1.4,2.3-3.2c0-1.4-0.8-2.9-2.4-2.9c-0.8,0-1.3,0.3-1.5,0.5c-0.2,0.2-0.2,0.5-0.2,1.1V67.5z" id="path108"></path> <path d="M228,65.6c0.3-0.1,0.3-0.3,0.3-0.5l0-0.8c0-0.7-0.2-1.6-1.3-1.6c-0.5,0-1.1,0.3-1.1,0.8c0,0.3,0,0.5-0.2,0.6 c-0.3,0.2-0.8,0.3-1,0.3c-0.2,0-0.3-0.1-0.3-0.3c0-0.9,2-2.2,3.3-2.2c1.3,0,1.9,0.8,1.9,2.1l-0.1,3.1c0,0.8,0.1,1.6,0.8,1.6 c0.2,0,0.3-0.1,0.4-0.1c0.1-0.1,0.2-0.1,0.2-0.1c0.1,0,0.1,0.1,0.1,0.2c0,0.1-0.6,0.8-1.5,0.8c-0.4,0-0.9-0.2-1.2-0.6 c-0.1-0.1-0.2-0.3-0.3-0.3c-0.1,0-0.3,0.2-0.7,0.4c-0.4,0.2-0.8,0.4-1.3,0.4c-0.5,0-1-0.1-1.3-0.4c-0.3-0.3-0.6-0.8-0.6-1.3 c0-0.7,0.3-1.1,1.5-1.5L228,65.6z M226.9,68.8c0.4,0,0.9-0.3,1.1-0.4c0.2-0.2,0.2-0.5,0.2-0.8l0-1.1c0-0.2-0.1-0.2-0.2-0.2 c-0.1,0-0.4,0.1-0.7,0.2c-1.1,0.4-1.6,0.6-1.6,1.3C225.7,68,225.9,68.8,226.9,68.8z" id="path110"></path> <path d="M232.7,64.2c0-0.7,0-0.8-0.5-1.1l-0.2-0.1c-0.1-0.1-0.1-0.3,0-0.3c0.4-0.1,1.4-0.6,1.8-0.9c0.1,0,0.2,0,0.2,0.1 c0,0.4,0,0.7,0,0.8c0,0.1,0.1,0.2,0.2,0.2c0.8-0.5,1.6-0.9,2.5-0.9c1.5,0,2.1,1,2.1,2.2v3.1c0,1.3,0,1.5,0.7,1.6l0.4,0.1 c0.1,0.1,0.1,0.4,0,0.4c-0.5,0-1.1-0.1-1.7-0.1c-0.6,0-1.2,0-1.7,0.1c-0.1-0.1-0.2-0.4,0-0.4l0.3-0.1c0.7-0.1,0.7-0.3,0.7-1.6v-2.7 c0-1-0.5-1.8-1.7-1.8c-0.7,0-1.3,0.3-1.5,0.6c-0.2,0.3-0.3,0.6-0.3,1.1v2.7c0,1.3,0,1.5,0.7,1.6l0.3,0.1c0.1,0.1,0.1,0.4,0,0.4 c-0.5,0-1-0.1-1.6-0.1c-0.6,0-1.2,0-1.7,0.1c-0.1-0.1-0.2-0.4,0-0.4l0.4-0.1c0.7-0.1,0.7-0.3,0.7-1.6V64.2z" id="path112"></path> <path d="M240.8,73.1c0-0.5,0.3-0.7,0.7-0.7h0.3c0.3,0,0.5-0.1,0.6-0.3c0.5-0.8,0.9-1.6,1-2c0.1-0.1,0.2-0.5,0.2-0.8 c0-0.4-0.1-0.6-0.3-1.2l-1.4-3.8c-0.3-0.8-0.4-1.3-1.1-1.4l-0.4-0.1c-0.1-0.1-0.1-0.4,0.1-0.4c0.6,0,1.1,0.1,1.7,0.1 c0.5,0,1,0,1.6-0.1c0.1,0.1,0.2,0.4,0,0.4l-0.4,0.1c-0.3,0.1-0.4,0.1-0.4,0.2c0,0.2,0.4,1.4,0.5,1.7l0.6,1.7 c0.1,0.3,0.4,1.2,0.5,1.3c0.1,0,0.3-0.6,0.7-1.3l0.6-1.4c0.4-0.9,0.6-1.6,0.6-1.8c0-0.1-0.1-0.3-0.4-0.3l-0.6-0.1 c-0.1-0.1-0.1-0.4,0-0.4c0.6,0,1.1,0.1,1.6,0.1c0.4,0,0.9,0,1.4-0.1c0.1,0.1,0.2,0.3,0,0.4l-0.3,0.1c-0.6,0.1-0.9,0.6-1.5,1.9 l-1,2.1c-0.6,1.2-2.1,4.3-2.9,6.3c-0.3,0.7-0.7,0.8-1.1,0.8C241.1,73.8,240.8,73.5,240.8,73.1z" id="path114"></path> </g> </svg>
